# xmcd
#
# Track frame offsets: 
#        151
#        20764
#        39984
#        55420
#        75278
#        90313
#        112023
#        142873
#        152026
#        173834
#        200406
#        220937
#
# Disc length: 3180 seconds
#
# Revision: 0
# Processed by: cddbd v1.5.1PL0 Copyright (c) Steve Scherf et al.
# Submitted via: ExactAudioCopy v0.95a5
#
DISCID=950c6a0c
DTITLE=The Puffin' Billies - The Puffin' Billies
DYEAR=2003
DGENRE=Bluegrass
TTITLE0=Driftin
TTITLE1=Bhune The Sheepherder
TTITLE2=Pukaki Joins The Goonies
TTITLE3=Perfect Day
TTITLE4=Good Ol' #72
TTITLE5=Old Cow
TTITLE6=Under My Feet
TTITLE7=Cripple Creek
TTITLE8=Bandalino
TTITLE9=Scruffers
TTITLE10=Seven
TTITLE11=City Weed
EXTD=
EXTT0=
EXTT1=
EXTT2=
EXTT3=
EXTT4=
EXTT5=
EXTT6=
EXTT7=
EXTT8=
EXTT9=
EXTT10=
EXTT11=
PLAYORDER=
